<?xml version="1.0" encoding="UTF-8"?>
<svg width="36px" height="36px" viewBox="0 0 36 36" version="1.1" xmlns="http://www.w3.org/2000/svg" xmlns:xlink="http://www.w3.org/1999/xlink">
    <title>facebook copy</title>
    <g id="Page-1" stroke="none" stroke-width="1" fill="none" fill-rule="evenodd">
        <g id="Home-5-MARZO" transform="translate(-470.000000, -1947.000000)" fill="#FFFFFF" fill-rule="nonzero">
            <g id="Group-25" transform="translate(0.000000, 1785.000000)">
                <g id="facebook-copy" transform="translate(470.000000, 162.000000)">
                    <path d="M31.5,0 L4.5,0 C2.01825,0 0,2.01825 0,4.5 L0,31.5 C0,33.98175 2.01825,36 4.5,36 L18,36 L18,23.625 L13.5,23.625 L13.5,18 L18,18 L18,13.5 C18,9.77175 21.02175,6.75 24.75,6.75 L29.25,6.75 L29.25,12.375 L27,12.375 C25.758,12.375 24.75,12.258 24.75,13.5 L24.75,18 L30.375,18 L28.125,23.625 L24.75,23.625 L24.75,36 L31.5,36 C33.98175,36 36,33.98175 36,31.5 L36,4.5 C36,2.01825 33.98175,0 31.5,0 Z" id="Path"></path>
                </g>
            </g>
        </g>
    </g>
</svg>