<svg width="145" height="38" fill="none" xmlns="http://www.w3.org/2000/svg"><g clip-path="url(#a)"><path fill-rule="evenodd" clip-rule="evenodd" d="M48.622 20.8c.22.292.438.438.803.438.51 0 .803-.511.803-.511l8.317-10.58c.657-.73 1.387-.146 1.387-.146.657.657.146 1.314.146 1.314l-1.897 2.334a.908.908 0 0 0-.073 1.24l1.897 2.336 5.91-7.443-2.335-2.991-.365-.511c-.365-.584-1.24-.657-1.24-.657h-3.503c-.948 0-1.459.657-1.459.657L47.09 18.83l1.532 1.97Zm-.438-6.494-2.334-2.991c-.511-.803.218-1.314.218-1.314.876-.51 1.387.292 1.387.292l1.97 2.48 2.335-2.99-2.7-3.43c-.657-.876-1.605-.803-1.605-.803h-3.21c-1.022 0-1.46.657-1.46.657L39.94 9.782l5.91 7.516 2.334-2.992Z" fill="#fff"/><path fill-rule="evenodd" clip-rule="evenodd" d="M57.305 16.86s-.292-.438-.803-.438c-.584 0-.803.365-.803.365l-8.39 10.799c-.657.73-1.387.146-1.387.146-.656-.657-.146-1.313-.146-1.313l1.897-2.408a.908.908 0 0 0 .073-1.24l-1.897-2.336-5.91 7.516 3.283 4.159h5.181l10.434-13.28-1.532-1.97Zm.438 6.494 2.407 3.065c.584.73-.146 1.313-.146 1.313-.948.584-1.459-.292-1.459-.292l-1.97-2.554-2.408 2.992 3.357 4.232h5.18l3.284-4.232-5.91-7.515-2.336 2.991Zm8.172-6.859c-1.314 0-2.408 1.022-2.408 2.335 0 1.314 1.094 2.335 2.408 2.335 1.313 0 2.407-1.021 2.407-2.335 0-1.24-1.094-2.335-2.407-2.335Zm0 3.649a1.23 1.23 0 0 1-1.24-1.24c0-.73.583-1.241 1.24-1.241.73 0 1.24.584 1.24 1.24.073.657-.51 1.24-1.24 1.24ZM52.927 5.55c1.313 0 2.408-1.022 2.408-2.335 0-1.314-1.095-2.335-2.408-2.335s-2.408 1.021-2.408 2.335c0 1.313 1.095 2.335 2.408 2.335Zm0-3.576c.73 0 1.24.584 1.24 1.24a1.23 1.23 0 0 1-1.24 1.241 1.23 1.23 0 0 1-1.24-1.24c0-.657.583-1.24 1.24-1.24Zm0 34.95c1.313 0 2.408-1.021 2.408-2.334 0-1.314-1.095-2.335-2.408-2.335s-2.408 1.021-2.408 2.335c.073 1.24 1.095 2.334 2.408 2.334Zm0-3.648c.73 0 1.24.584 1.24 1.24a1.23 1.23 0 0 1-1.24 1.241 1.23 1.23 0 0 1-1.24-1.24c0-.657.583-1.24 1.24-1.24ZM42.347 18.83c0-1.313-1.095-2.335-2.408-2.335s-2.408 1.022-2.408 2.335c0 1.314 1.095 2.335 2.408 2.335s2.408-1.021 2.408-2.335Zm-3.648 0c0-.73.583-1.24 1.24-1.24.73 0 1.24.584 1.24 1.24 0 .73-.583 1.24-1.24 1.24-.73.074-1.24-.51-1.24-1.24Z" fill="#fff"/><mask id="b" style="mask-type:alpha" maskUnits="userSpaceOnUse" x="0" y="3" width="28" height="32"><path fill-rule="evenodd" clip-rule="evenodd" d="M.465 3.184h27.508v31.229H.465V3.183Z" fill="#fff"/></mask><g mask="url(#b)"><path fill-rule="evenodd" clip-rule="evenodd" d="M27.316 3.913v17.585c0 2.116-.656 4.086-1.97 5.837-1.094 1.46-2.626 2.7-4.523 3.867-2.92 1.678-5.91 2.48-6.567 2.7-.657-.146-3.649-.949-6.567-2.627-1.897-1.094-3.43-2.408-4.524-3.867-1.313-1.751-2.043-3.721-2.043-5.837V3.913h26.194Zm.657-.73H.465v18.242c0 9.996 13.718 12.988 13.718 12.988S27.9 31.42 27.9 21.425c.073 0 .073-18.241.073-18.241Z" fill="#fff"/></g><path fill-rule="evenodd" clip-rule="evenodd" d="M17.539 9.054V7.376h-1.751v1.532h-.657V7.376H13.38v1.532h-.657V7.376h-1.75v1.678l.875 1.46c0 .072.073.072.073.145v7.662h.802v-2.773c0-.657.73-1.24 1.533-1.24.802 0 1.532.583 1.532 1.24v2.773h.875v-7.662c0-.073 0-.146.073-.146l.803-1.459Zm-6.42 9.486v-2.554l-.293.219c-.146.073-.292.073-.365 0l-.364-.22v.95c0 .072-.073.218-.146.291.073 0 .073 0 .073.073.437.365.51.876.365 1.314.072-.073.73-.073.73-.073Z" fill="#fff"/><path fill-rule="evenodd" clip-rule="evenodd" d="M14.183 15.036c-.511 0-.876.365-.876.584v2.772h1.751V15.62c.073-.219-.292-.584-.875-.584Z" fill="#fff"/><path fill-rule="evenodd" clip-rule="evenodd" d="M3.895 18.538a11.96 11.96 0 0 1-.22-.802c-.072-.51-.072-1.022-.072-1.022 0-.145.073-.291.219-.291l.73-.22-.803-.583c-.073-.073-.146-.146-.146-.292v-.948c0-.146.073-.22.146-.292l.365-.146v-.292l-.292-.146c-.146-.073-.22-.146-.22-.292v-1.094c0-.22.147-.365.366-.365h1.021c0-.292 0-.657.073-.949.073-.438.292-.948.438-1.167l-.073-.365c0-.219.073-.365.292-.365h.583c.074 0 .146 0 .146.073l1.387.876h.656c.073 0 .146.073.22.073.072.073.072.146.072.219l-.073 1.094c0 .073-.073.146-.146.219h.438c.073 0 .146.073.22.073l.218.219.146-.146.219-.51c.073-.147.146-.22.292-.22h.875v-.219L10.097 9.2c0-.073-.073-.146-.073-.146V7.01c0-.219.146-.365.365-.365h7.296c.219 0 .365.146.365.365v2.116c0 .073 0 .146-.073.146l-.876 1.46v.218h.876c.146 0 .219.073.292.22l.219.51.146.146.218-.22c.073-.072.146-.072.22-.072h.437c-.073-.073-.073-.146-.073-.219l-.073-1.095c0-.218.146-.364.292-.364h.657l1.386-.876c.073 0 .146-.073.146-.073h.584c.219 0 .365.146.365.365v.073l.146.292c.145.219.364.656.437 1.094.073.292.073.657.073.949h1.022c.219 0 .365.146.365.365v1.094c0 .146-.073.292-.22.292l-.291.146v.292l.292.146c.146.073.146.146.146.292v.948c0 .073-.073.219-.146.292l-.803.657.73.218c.146.073.219.146.219.292 0 0 0 .511-.073 1.022-.073.292-.146.51-.22.802h1.241V5.551H2.654v12.987h1.24Z" fill="#fff"/><path fill-rule="evenodd" clip-rule="evenodd" d="m18.342 17.224.073-.073c-.073-.072-.146-.145-.146-.291v-.949l-.292.292c-.146.073-.219.073-.365 0l-.292-.146v2.554h.657c-.073-.51-.073-1.022.365-1.387Zm4.524 8.245c-.22 0-.365-.145-.365-.364v-2.19a.788.788 0 0 0-.22-.51c-.218-.146-.437-.292-.729-.292-.51 0-.802.438-.875.803v2.189c0 .219-.146.364-.365.364h-2.043c-.22 0-.365-.145-.365-.364v-2.19a.788.788 0 0 0-.219-.51c-.219-.146-.438-.292-.73-.292a.829.829 0 0 0-.583.219l1.75 8.464c2.336-1.021 5.108-2.7 6.568-5.326h-1.824Zm-5.4 5.546-2.335-11.748h-1.897L10.9 31.015v.073c1.606.656 2.919 1.021 3.284 1.094.438-.146 1.75-.51 3.283-1.167Zm-5.472-8.61a.829.829 0 0 0-.584-.219c-.365 0-.584.146-.657.292a.788.788 0 0 0-.219.51v2.19c0 .219-.145.364-.364.364H8.127c-.22 0-.365-.145-.365-.364v-2.19c-.073-.364-.365-.802-.876-.802-.365 0-.583.146-.656.292a.788.788 0 0 0-.22.51v2.19c0 .219-.145.364-.364.364H3.822c1.46 2.554 4.232 4.232 6.567 5.254-.073 0 1.605-8.391 1.605-8.391Z" fill="#fff"/><path fill-rule="evenodd" clip-rule="evenodd" d="M25.784 19.195h-9.923l.51 2.48c.657-.291 1.387-.219 1.898.292.292.292.438.657.438 1.022v1.897h1.313v-1.824c.073-.803.73-1.387 1.532-1.46.438 0 .876.146 1.168.438.292.292.437.657.437 1.022v1.824h1.825c.51-1.095.73-2.262.73-3.43l.072-2.261ZM5.281 24.813v-1.897c0-.365.146-.73.438-1.022.292-.292.73-.438 1.167-.438.803 0 1.46.657 1.533 1.46v1.824h1.313v-1.824c0-.365.146-.73.438-1.022.291-.292.73-.438 1.167-.438.219 0 .51.073.73.146l.51-2.48H2.655v2.189c0 1.313.292 2.407.73 3.429 0 .073 1.897.073 1.897.073Zm.803-7.005h.583c.073.073.073.146.073.22v.145c0 .146 0 .219-.073.365h-1.97c-.292-.219-.437-.949-.437-1.532l.875-.292c.146-.073.219-.146.219-.292v-.292c0-.073-.073-.219-.146-.292l-.948-.656v-.584l.291-.146c.146-.073.146-.146.146-.292v-.73c0-.146-.073-.291-.219-.291l-.291-.146v-.584h.875l.51.656v.95l-.291.875c-.073.146.073.364.219.437h.365c.146 0 .292-.146.365-.291 0-.146.073-.584.146-.803.072-.146.291-.438.437-.657a.465.465 0 0 0 0-.438l-1.167-1.313c0-.219-.073-.657 0-1.021.073-.365.365-.803.438-.949.073-.073.073-.146.073-.219V9.49h.073l1.386.876c.073 0 .146.073.146.073h.365v.51l-.438.146c-.146.073-.219.146-.219.292v.365c0 .219.146.365.365.365h1.167l.292.292c.146.146.292.146.438 0 0 0 .51-.438.584-.438l.218-.365h.657v1.24s-1.24.438-1.313.438c-.073.073-.146.438-.146.511 0 .073 0 .146.146.22 0 0 .365.29.438.29l.364-.364h.511v1.167l-.51.365-1.387-.948c-.146-.073-.365-.073-.438.073l-.219.292c-.073.146-.073.364 0 .437l.803.73v.584l-.803.365c-.146.073-.218.145-.218.291v.146c0 .22.145.365.364.365h.949c.146.22.073.511 0 .73H7.47a.557.557 0 0 1-.146-.365v-.146c0-.219 0-.365.073-.584l.51-.656c.074-.073.074-.146.074-.22v-.291c0-.219-.146-.365-.292-.365h-.146l-.876.365c-.146.073-.219.146-.219.292v.365l-.51.146c-.146.072-.22.145-.22.291v.146c0 .146.147.292.366.292Zm16.27 0h-.583c-.073.073-.073.146-.073.22v.145c0 .146 0 .219.073.365h1.897c.292-.219.438-.949.438-1.532l-.876-.292c-.146-.073-.218-.146-.218-.292v-.292c0-.073.072-.219.145-.292l.949-.656v-.584l-.292-.146c-.146-.073-.146-.146-.146-.292v-.73c0-.146.073-.291.22-.291l.29-.146v-.584h-.875l-.437.656v.95l.291.875c0 .073 0 .218-.073.291-.072.074-.145.146-.291.146H22.5c-.146 0-.292-.146-.365-.291a3.76 3.76 0 0 0-.146-.803c-.073-.146-.292-.438-.438-.657a.465.465 0 0 1 0-.438l1.168-1.313c0-.219.073-.657 0-1.021-.073-.365-.365-.803-.438-.949-.073-.073-.073-.146-.073-.219V9.49h-.073l-1.386.876c-.073 0-.146.073-.146.073h-.365v.51l.438.146c.146.073.218.146.218.292v.365c0 .219-.145.365-.364.365h-1.168l-.292.292c-.146.146-.292.146-.437 0 0 0-.511-.438-.584-.438l-.073-.365h-.657v1.24s1.24.438 1.314.438c.073.073.145.438.145.511 0 .073 0 .146-.145.22 0 0-.365.29-.438.29l-.365-.364h-.51v1.167l.437.292 1.386-.948c.146-.073.365-.073.438.073l.219.292c.073.146.073.364 0 .438l-.803.73v.583l.803.365c.146.073.219.146.219.291v.146c0 .22-.146.365-.365.365h-.948c-.146.22-.073.511 0 .73h2.261a.558.558 0 0 0 .146-.365v-.146c0-.219 0-.365-.073-.584l-.51-.656c-.073-.073-.073-.146-.073-.22v-.291c0-.146.073-.219.146-.292a.222.222 0 0 1 .291 0l.876.365c.146.073.219.146.219.292l.073.365.51.146c.147.072.22.145.22.291v.146a.493.493 0 0 1-.438.292Zm53.192-2.918c0-1.314.949-2.408 2.335-2.408.803 0 1.314.219 1.751.657l-.365.364c-.364-.292-.73-.51-1.459-.51-1.021 0-1.751.875-1.751 1.897 0 1.094.73 1.97 1.824 1.97.51 0 .949-.146 1.386-.438v-1.168h-1.459v-.437h1.97v1.824c-.51.438-1.167.73-1.897.73-1.386-.146-2.335-1.168-2.335-2.481Zm6.056 0c0-1.314.949-2.408 2.408-2.408 1.46 0 2.408 1.094 2.408 2.408 0 1.313-.949 2.407-2.408 2.407-1.46-.073-2.408-1.167-2.408-2.407Zm4.232 0c0-1.095-.802-1.97-1.824-1.97-1.094 0-1.824.875-1.824 1.897 0 1.094.803 1.897 1.824 1.897 1.022.073 1.824-.803 1.824-1.824Zm2.408-2.408h1.97c.51 0 .949.146 1.24.438.22.219.292.437.292.73 0 .583-.364.948-.73 1.094.585.146 1.022.51 1.022 1.094 0 .803-.656 1.24-1.678 1.24h-2.116v-4.596Zm2.992 1.24c0-.438-.365-.73-1.022-.73h-1.46v1.606h1.387c.657 0 1.095-.292 1.095-.876Zm-.949 1.314h-1.46v1.678h1.606c.73 0 1.168-.292 1.168-.803-.074-.584-.511-.875-1.314-.875Z" fill="#fff"/><mask id="c" style="mask-type:alpha" maskUnits="userSpaceOnUse" x="0" y="0" width="145" height="37"><path fill-rule="evenodd" clip-rule="evenodd" d="M.465 36.926h144.398V.883H.465v36.044Z" fill="#fff"/></mask><g mask="url(#c)"><path fill-rule="evenodd" clip-rule="evenodd" d="M93.933 17.152h.511v-4.67h-.51v4.67Zm2.627-4.67h3.356v.511h-2.845v1.605h2.553v.511h-2.553v1.605h2.918v.511H96.56v-4.743Zm5.18 0h2.044c.583 0 1.021.146 1.313.438.219.22.365.584.365.949 0 .802-.511 1.24-1.241 1.386l1.46 1.897h-.657l-1.386-1.824h-1.314v1.824h-.511l-.073-4.67Zm1.971 2.408c.729 0 1.167-.365 1.167-.948 0-.584-.438-.949-1.167-.949h-1.46v1.897h1.46Zm3.648-2.408h.511l2.918 3.722v-3.722h.511v4.67h-.438l-2.991-3.794v3.794h-.511v-4.67Zm5.91 2.408c0-1.313.948-2.408 2.408-2.408 1.459 0 2.408 1.095 2.408 2.408 0 1.314-.949 2.408-2.408 2.408-1.46-.073-2.408-1.167-2.408-2.408Zm4.232 0c0-1.094-.803-1.97-1.824-1.97-1.022 0-1.824.876-1.824 1.897 0 1.095.802 1.897 1.824 1.897 1.021.073 1.824-.802 1.824-1.824Zm4.816-2.408h1.605c1.459 0 2.481 1.022 2.481 2.335 0 1.314-1.022 2.335-2.481 2.335h-1.605v-4.67Zm.583.511v3.721h1.095c1.167 0 1.97-.802 1.97-1.824 0-1.021-.73-1.824-1.97-1.824H122.9v-.073Zm5.254-.51h3.356v.51h-2.845v1.605h2.553v.511h-2.553v1.605h2.918v.511h-3.429v-4.743Zm7.588 0h.511v4.158h2.627v.511h-3.138v-4.67Zm6.421 0h.511l2.116 4.67h-.584l-.584-1.241h-2.553l-.584 1.24h-.511c.073 0 2.189-4.67 2.189-4.67Zm1.313 2.991-1.094-2.335-1.095 2.335h2.189Zm-68.003 7.37c0-1.314 1.022-2.408 2.408-2.408.876 0 1.386.291 1.824.73l-.657.729c-.364-.292-.73-.51-1.167-.51-.803 0-1.386.656-1.386 1.458 0 .803.583 1.46 1.386 1.46.51 0 .876-.22 1.24-.511l.657.657c-.51.51-1.021.802-1.897.802-1.386 0-2.408-1.094-2.408-2.408Zm5.18 2.334h1.022v-4.67h-1.021v4.67Zm2.19-2.043V20.51h1.021v2.626c0 .73.365 1.168 1.022 1.168.656 0 1.021-.365 1.021-1.095v-2.7h1.022v2.627c0 1.387-.803 2.116-2.043 2.116-1.24 0-2.043-.73-2.043-2.116Zm5.253-2.626h1.824c1.46 0 2.481 1.021 2.481 2.334 0 1.314-1.022 2.335-2.48 2.335h-1.825v-4.67Zm1.824 3.72c.876 0 1.386-.583 1.386-1.386 0-.802-.583-1.386-1.386-1.386h-.802v2.773h.802Zm4.816-3.72h.948l2.043 4.67h-1.094l-.438-1.022h-1.97l-.438 1.021h-1.021l1.97-4.67Zm1.094 2.7-.656-1.533-.657 1.532h1.313Zm2.627-2.7h1.824c1.459 0 2.481 1.021 2.481 2.334 0 1.314-1.022 2.335-2.481 2.335h-1.824v-4.67Zm1.824 3.72c.876 0 1.387-.583 1.387-1.386 0-.802-.584-1.386-1.387-1.386h-.802v2.773h.802Zm5.473-3.72h1.824c1.459 0 2.48 1.021 2.48 2.334 0 1.314-1.021 2.335-2.48 2.335h-1.824v-4.67Zm1.824 3.72c.875 0 1.386-.583 1.386-1.386 0-.802-.584-1.386-1.386-1.386h-.803v2.773h.803Zm3.429-3.72h3.502v.875h-2.407v.949h2.188v.875h-2.188v1.022h2.553v.875h-3.575l-.073-4.596Zm6.567 0h1.094l1.241 1.97 1.24-1.97h1.095v4.67h-1.022v-3.065l-1.313 1.97-1.314-1.97v2.991h-1.021V20.51Zm5.91 0h3.502v.875h-2.48v.949h2.188v.875h-2.188v1.022h2.553v.875h-3.575V20.51Zm1.97-1.533.876.365-.876.803h-.803l.803-1.168Zm3.94 3.794-1.532-2.261h1.24l.949 1.532 1.021-1.532h1.168l-1.532 2.261 1.605 2.408h-1.241l-1.021-1.605-1.022 1.605h-1.167l1.532-2.408Zm3.648 2.408h1.022v-4.67h-1.022v4.67Zm2.043-2.335c0-1.313 1.022-2.407 2.408-2.407.876 0 1.387.291 1.824.73l-.656.729c-.365-.292-.73-.51-1.168-.51-.802 0-1.386.656-1.386 1.458 0 .803.584 1.46 1.386 1.46.511 0 .876-.22 1.241-.511l.656.657c-.51.51-1.021.802-1.897.802-1.386 0-2.408-1.094-2.408-2.408Zm4.743 0c0-1.313 1.022-2.407 2.481-2.407 1.459 0 2.481 1.094 2.481 2.407 0 1.314-1.022 2.408-2.481 2.408-1.386 0-2.481-1.094-2.481-2.408Zm3.94 0c0-.802-.583-1.459-1.386-1.459-.803 0-1.386.657-1.386 1.46 0 .802.583 1.459 1.386 1.459.803 0 1.386-.657 1.386-1.46Z" fill="#fff"/></g></g><defs><clipPath id="a"><path fill="#fff" transform="translate(.465 .882)" d="M0 0h144.47v36.482H0z"/></clipPath></defs></svg>