<svg width="505" height="67" viewBox="0 0 505 67" fill="none" xmlns="http://www.w3.org/2000/svg">
<path d="M279.868 8.70142H279.159V57.8814H279.868V8.70142Z" fill="#9F2241"/>
<path d="M88.6271 36.8687C88.9494 37.3844 89.465 37.6422 90.174 37.6422C91.0764 37.7067 91.721 36.7398 91.721 36.7398L106.997 17.0807C108.286 15.7916 109.511 16.8229 109.511 16.8229C110.736 18.112 109.833 19.2078 109.833 19.2078L106.417 23.5908V23.6552C106.095 23.9775 105.966 24.3642 105.966 24.8154C105.966 25.2022 106.095 25.5889 106.353 25.9112L109.769 30.2942L120.597 16.5006L116.279 10.9574L115.505 9.92608C114.796 8.89478 113.249 8.70142 113.249 8.70142H106.739C104.999 8.70142 104.097 9.92608 104.097 9.92608L85.8555 33.3236L88.6271 36.8687Z" fill="#9F2241"/>
<path d="M87.8537 24.88L83.5351 19.2723C82.6327 17.8543 83.9218 16.823 83.9218 16.823C85.5332 15.8562 86.5001 17.3386 86.5001 17.3386L90.1096 21.9795L94.3637 16.4363L89.4651 10.1196C88.3049 8.44371 86.5001 8.70153 86.5001 8.70153H80.6346C78.7654 8.70153 77.9274 9.86174 77.9274 9.86174L72.7065 16.4363L83.5351 30.3588L87.8537 24.88Z" fill="#9F2241"/>
<path d="M104.677 29.6497C104.677 29.6497 104.161 28.8762 103.194 28.8762C102.163 28.8762 101.776 29.5852 101.776 29.5852L86.3067 49.5022C85.082 50.8557 83.664 49.76 83.664 49.76C82.4393 48.4709 83.4706 47.3107 83.4706 47.3107L86.9513 42.8632V42.7987C87.2735 42.4765 87.4025 42.0897 87.4025 41.6385C87.4025 41.2518 87.2736 40.8651 87.0157 40.5428L83.5996 36.1598L72.7065 50.1467L78.7653 57.817L88.3048 57.8815L107.513 33.3237L104.677 29.6497Z" fill="#9F2241"/>
<path d="M105.45 41.5742L109.833 47.2464C110.864 48.6644 109.575 49.6957 109.575 49.6957C107.899 50.8559 106.868 49.1156 106.868 49.1156L103.194 44.4103L98.9401 49.9535L105.128 57.8172L114.603 57.7527L120.662 49.9535L109.769 36.0955L105.45 41.5742Z" fill="#9F2241"/>
<path d="M120.533 35.6441C119.244 35.6441 118.212 34.6128 118.212 33.3237C118.212 32.0346 119.244 31.0033 120.533 31.0033C121.822 31.0033 122.853 32.0346 122.853 33.3237C122.853 34.6128 121.822 35.6441 120.533 35.6441ZM120.533 28.9407C118.084 28.9407 116.15 30.8744 116.15 33.2592C116.15 35.6441 118.084 37.5778 120.533 37.5778C122.982 37.5778 124.916 35.6441 124.916 33.2592C124.916 30.8744 122.982 28.9407 120.533 28.9407Z" fill="#9F2241"/>
<path d="M96.6197 1.99814C97.9088 1.99814 98.9401 3.02944 98.9401 4.31856C98.9401 5.60768 97.9088 6.63898 96.6197 6.63898C95.3306 6.63898 94.2993 5.60768 94.2993 4.31856C94.2993 3.02944 95.395 1.99814 96.6197 1.99814ZM96.6197 8.70157C99.069 8.70157 101.003 6.76789 101.003 4.38301C101.003 1.99814 99.069 0 96.6197 0C94.1704 0 92.2367 1.93368 92.2367 4.31856C92.2367 6.70343 94.1704 8.70157 96.6197 8.70157Z" fill="#9F2241"/>
<path d="M70.3216 33.2592C70.3216 31.9701 71.3529 30.9388 72.642 30.9388C73.9311 30.9388 74.9624 31.9701 74.9624 33.2592C74.9624 34.5484 73.9311 35.5797 72.642 35.5797C71.3529 35.5797 70.3216 34.5484 70.3216 33.2592ZM77.0895 33.2592C77.0895 30.8744 75.1558 28.9407 72.7064 28.9407C70.2571 28.9407 68.3234 30.8744 68.3234 33.2592C68.3234 35.6441 70.2571 37.5778 72.7064 37.5778C75.0913 37.6422 77.0895 35.6441 77.0895 33.2592Z" fill="#9F2241"/>
<path d="M96.6197 64.585C95.3306 64.585 94.2993 63.5537 94.2993 62.2646C94.2993 60.9755 95.3306 59.9442 96.6197 59.9442C97.9088 59.9442 98.9401 60.9755 98.9401 62.2646C98.9401 63.4893 97.9088 64.585 96.6197 64.585ZM96.6197 57.8816C94.1704 57.8816 92.2367 59.8153 92.2367 62.2001C92.2367 64.585 94.1704 66.5187 96.6197 66.5187C99.069 66.5187 101.003 64.585 101.003 62.2001C101.003 59.8153 99.069 57.8816 96.6197 57.8816Z" fill="#9F2241"/>
<path d="M50.6625 4.3186H0V38.0936C0 56.6569 25.2668 62.2002 25.2668 62.2002H25.3312C25.3312 62.2002 50.598 56.5925 50.598 38.0936L50.6625 4.3186ZM49.3734 5.54327V38.0936C49.3734 42.0254 48.1487 45.6994 45.6994 48.9222C43.7012 51.5649 40.9296 53.9498 37.3845 56.0124C32.0347 59.1707 26.5559 60.6532 25.2668 60.911C24.0421 60.5888 18.6278 59.1707 13.2135 56.0124C9.66841 53.9498 6.8968 51.5649 4.89866 48.9222C2.44933 45.6994 1.22467 42.0254 1.22467 38.0936V5.54327H49.3734Z" fill="#BC955C"/>
<path d="M31.4546 15.1474V12.0535H28.2962V14.954H27.0716V12.0535H23.7843V14.954H22.5597V12.0535H19.3369V15.1474L20.9483 17.8545C21.0127 17.9834 21.0127 18.0479 21.0127 18.1768V32.3571H22.5597V27.2651C22.5597 26.0404 23.9132 24.9447 25.3957 24.9447C26.9427 24.9447 28.2318 26.0404 28.2318 27.2651V32.3571H29.8432V27.0073C29.8432 26.9428 29.8432 26.9428 29.8432 26.9428V24.3001V24.2357V22.302V21.4641V18.2412C29.8432 18.1123 29.9076 18.0479 29.9721 17.919L31.4546 15.1474Z" fill="#BC955C"/>
<path d="M19.6591 32.6792V27.9739L19.1434 28.3606C18.9501 28.4895 18.6923 28.4895 18.4989 28.2962L17.7899 27.845C17.7899 27.9094 17.7899 27.9094 17.7899 27.9094L17.7254 29.7142C17.7254 29.9076 17.5965 30.1009 17.4676 30.1654C17.532 30.2298 17.5965 30.2298 17.661 30.2943C18.4989 30.9389 18.5633 31.9057 18.37 32.6792H19.6591Z" fill="#BC955C"/>
<path d="M25.2668 26.2336C24.3 26.2336 23.6554 26.9427 23.6554 27.2649V32.357H26.8782V27.2649C26.9427 26.8782 26.2336 26.2336 25.2668 26.2336Z" fill="#BC955C"/>
<path d="M6.3167 32.6791C6.12333 32.2923 5.99442 31.8412 5.92996 31.261C5.73659 30.2298 5.80105 29.3918 5.80105 29.3274C5.80105 29.0695 5.99442 28.8762 6.25224 28.7473L7.60582 28.3605L6.05887 27.2648C5.8655 27.1359 5.80105 26.9425 5.80105 26.7491V25.0088C5.80105 24.751 5.92996 24.5576 6.12333 24.4287L6.70343 24.1064V23.5263L6.25224 23.333C5.99442 23.2685 5.80105 23.0751 5.80105 22.7528V20.6903C5.80105 20.368 6.05887 20.0457 6.44561 20.0457L8.37929 19.9812C8.31483 19.4656 8.31483 18.7566 8.44375 18.1765C8.63712 17.403 9.08831 16.5651 9.28168 16.1783L9.15276 15.4693C9.08831 15.2759 9.21722 15.147 9.28168 15.0181C9.41059 14.8892 9.5395 14.8247 9.73287 14.8247H10.7642C10.8931 14.8247 11.022 14.8892 11.0864 14.9537L13.6002 16.5651H14.8249C15.0183 16.5651 15.1472 16.6295 15.2761 16.7584C15.405 16.8873 15.4695 17.0163 15.4695 17.2096L15.3405 19.2078C15.3405 19.4011 15.2761 19.53 15.1472 19.659H15.9207C16.114 19.659 16.2429 19.7234 16.3718 19.8523L16.6941 20.2391L16.9519 20.0457L17.4031 19.1433C17.5321 18.9499 17.7254 18.821 17.9832 18.821H19.6591V18.4987L18.0477 15.7271C17.9832 15.5982 17.9832 15.5338 17.9832 15.4049V11.4086C17.9832 11.0863 18.2411 10.764 18.6278 10.764H22.4952H23.7198H27.0071H28.2962H32.0991C32.4214 10.764 32.7437 11.0218 32.7437 11.4086V15.2759C32.7437 15.4049 32.6792 15.4693 32.6148 15.5982L31.0034 18.3054V18.6921H32.6792C32.9371 18.6921 33.1304 18.821 33.2593 19.0144L33.7105 19.9168L33.9684 20.1101L34.2906 19.7234C34.4195 19.5945 34.5485 19.53 34.7418 19.53H35.5153C35.3864 19.4011 35.3219 19.2722 35.3219 19.0788L35.193 17.0807C35.193 16.8873 35.2575 16.7584 35.3864 16.6295C35.5153 16.5006 35.6442 16.4361 35.8376 16.4361H36.9978L39.5116 14.8247C39.6405 14.7603 39.7049 14.6958 39.8339 14.6958H40.8652C41.0585 14.6958 41.1874 14.7603 41.3163 14.8892C41.4453 15.0181 41.5097 15.2115 41.4453 15.3404L41.3163 16.0494C41.5097 16.4361 41.9609 17.2741 42.1543 18.0476C42.2832 18.6277 42.2832 19.3367 42.2187 19.8523L44.1524 19.9168C44.4747 19.9168 44.797 20.1746 44.797 20.5613V22.6239C44.797 22.8818 44.6681 23.0751 44.4102 23.204L43.8301 23.3974V23.9775L44.4102 24.2998C44.6036 24.4287 44.7325 24.6221 44.7325 24.8799V26.6202C44.7325 26.8136 44.6036 27.0069 44.4747 27.1359L42.9277 28.2316L44.2813 28.6184C44.5392 28.6828 44.6681 28.9406 44.7325 29.1985C44.7325 29.2629 44.797 30.1008 44.6036 31.1321C44.4747 31.7122 44.4102 32.1634 44.2169 32.5502H46.4728H46.5373V8.63696H3.99628V32.6791H6.3167Z" fill="#BC955C"/>
<path d="M32.937 30.2943C33.0015 30.2298 33.066 30.2298 33.1304 30.1654C33.0015 30.0365 32.8726 29.9076 32.8726 29.7142V27.9094C32.8726 27.845 32.8726 27.845 32.8726 27.845L32.228 28.3606C32.0347 28.4895 31.7768 28.4895 31.519 28.4251L31.0034 28.1028V32.8081H32.228C32.0991 31.9057 32.0991 31.0033 32.937 30.2943Z" fill="#BC955C"/>
<path d="M41.2519 45.5704C40.9296 45.5704 40.6073 45.3125 40.6073 44.9258V40.8651C40.6073 40.5428 40.414 40.156 40.1561 39.8982C39.8983 39.6404 39.5116 39.3826 38.867 39.447C37.9002 39.447 37.3201 40.2205 37.2556 40.9295V44.9903C37.2556 45.1836 37.1912 45.3125 37.0622 45.4414C36.9333 45.5704 36.8044 45.6348 36.611 45.6348H32.937C32.6148 45.6348 32.2925 45.377 32.2925 44.9903V40.9295C32.2925 40.6072 32.0991 40.2205 31.8413 39.9627C31.5835 39.7049 31.1967 39.447 30.5522 39.5115C30.1654 39.5115 29.7787 39.7049 29.4564 39.8982L32.4859 55.4321C36.74 53.5629 41.832 50.4046 44.6036 45.6348L41.2519 45.5704Z" fill="#BC955C"/>
<path d="M31.3256 55.7547L27.0715 33.9685H23.6554L19.3368 55.7547C19.3368 55.8191 19.3368 55.8191 19.2723 55.8836C22.2373 57.1082 24.6222 57.6883 25.3312 57.9462C26.0402 57.7528 28.4251 57.1082 31.3901 55.8836C31.3901 55.8191 31.3901 55.8191 31.3256 55.7547Z" fill="#BC955C"/>
<path d="M21.1416 39.8338C20.8838 39.5759 20.4971 39.447 20.0459 39.447H19.9814C19.3369 39.447 18.9501 39.7048 18.7567 39.9627C18.4989 40.2205 18.3056 40.6072 18.3056 40.9295V44.9902C18.3056 45.3125 18.0477 45.6348 17.661 45.6348H13.987C13.7936 45.6348 13.6647 45.5704 13.5358 45.4414C13.4069 45.3125 13.3424 45.1836 13.3424 44.9902V40.9295C13.278 40.2205 12.6979 39.447 11.731 39.447H11.6666C11.022 39.447 10.6353 39.7048 10.4419 39.9627C10.1841 40.2205 9.99072 40.6072 9.99072 40.9295V44.9902C9.99072 45.3125 9.73289 45.6348 9.34616 45.6348H6.12335C8.83051 50.4046 13.8581 53.4985 18.1766 55.4321L21.1416 39.8338Z" fill="#BC955C"/>
<path d="M46.6018 33.9685H28.3607L29.2631 38.5449C29.6498 38.3515 30.101 38.2226 30.5522 38.2226C31.3902 38.2226 32.1636 38.4804 32.7437 39.0605C33.2594 39.5762 33.5817 40.2852 33.5817 40.8653V44.2815H36.031V40.8653C36.031 40.8008 36.031 40.8008 36.031 40.8008C36.1599 39.3184 37.3846 38.1581 38.8671 38.1581C39.705 38.1581 40.4785 38.416 41.0586 38.9961C41.5742 39.5117 41.8965 40.2207 41.8965 40.8008V44.217H45.3127C46.1506 42.3478 46.6662 40.2852 46.6662 37.9003L46.6018 33.9685Z" fill="#BC955C"/>
<path d="M8.83048 44.3457V40.9295C8.83048 40.2849 9.15276 39.6404 9.66841 39.1247C10.2485 38.5446 11.022 38.2868 11.8599 38.2868C13.3424 38.3513 14.5671 39.447 14.696 40.9295C14.696 40.994 14.696 40.994 14.696 40.994V44.4101H17.1453V40.994C17.1453 40.3494 17.4676 39.7048 17.9832 39.1892C18.5633 38.6091 19.3368 38.3513 20.1747 38.3513C20.6259 38.3513 21.0771 38.4802 21.4639 38.6735L22.3663 34.0972H4.06073V38.029C4.06073 40.4139 4.57638 42.5409 5.41431 44.3457H8.83048Z" fill="#BC955C"/>
<path d="M10.313 31.3901H11.3443C11.4087 31.519 11.4732 31.6479 11.4732 31.7768C11.4732 31.8413 11.4732 31.9702 11.4732 32.0347C11.4732 32.228 11.4087 32.4859 11.4087 32.6792H7.86363C7.34798 32.3569 7.09015 30.9389 7.09015 29.8432L8.6371 29.392C8.89492 29.3275 9.08829 29.0697 9.08829 28.8119V28.2318C9.08829 28.0384 8.95938 27.845 8.83047 27.7161L7.0257 26.427V25.3957L7.6058 25.0734C7.79917 24.9445 7.92808 24.7511 7.92808 24.4933V23.1397C7.92808 22.8819 7.79917 22.6885 7.54135 22.5596L6.96124 22.3662V21.3349H8.57264L9.34612 22.6241V24.3644L8.83047 26.0402C8.76601 26.2336 8.76601 26.427 8.95938 26.6203C9.08829 26.8137 9.28166 26.8782 9.47503 26.8782H9.92622C10.2485 26.8782 10.5063 26.6848 10.5708 26.3625C10.6352 26.1047 10.7642 25.2668 10.8931 24.9445C11.022 24.6867 11.4732 24.1066 11.731 23.7198C11.9244 23.462 11.9244 23.1397 11.731 22.9464L9.6684 20.497C9.60394 20.1103 9.53949 19.2724 9.6684 18.6278C9.79731 17.9188 10.313 17.0808 10.4419 16.823C10.5063 16.6941 10.5708 16.5652 10.5063 16.4363L10.4419 16.2429H10.5708L13.0846 17.8543C13.2135 17.9188 13.2779 17.9832 13.4069 17.9832H14.1803L14.1159 18.6923L13.2779 19.0145C13.0846 19.1434 12.8912 19.3368 12.8912 19.5946V20.2392C12.8912 20.5615 13.149 20.8838 13.5358 20.8838H15.6628L16.2429 21.4639C16.4363 21.7217 16.823 21.7217 17.0808 21.5283C17.0808 21.5283 18.0477 20.7548 18.1121 20.6904L18.4344 19.9814H19.7235V21.3994V22.1729C19.7235 22.1729 17.4676 22.9464 17.2742 23.0108C17.1453 23.0753 17.0164 23.7843 17.0808 23.9132C17.1453 24.1066 17.0808 24.171 17.3387 24.2999C17.3387 24.2999 17.9832 24.8156 18.1766 24.88L18.8212 24.2355L19.6591 24.3644V26.4914L18.8212 27.0715L16.1785 25.2668C15.9206 25.0734 15.5339 25.1379 15.3405 25.3957L14.9538 25.9113C14.7604 26.1692 14.7604 26.5559 15.0183 26.7493L16.5007 28.1673V29.3275L14.9538 29.9721C14.696 30.101 14.5671 30.2943 14.5671 30.5522V30.81C14.5671 31.1323 14.8249 31.4546 15.2116 31.4546H17.0164C17.3387 31.8413 17.2098 32.3569 17.0808 32.7437H12.9557C12.8267 32.6148 12.7623 32.3569 12.6978 32.0347C12.6978 31.9702 12.6978 31.8413 12.6978 31.7768C12.6978 31.3901 12.7623 31.0034 12.8267 30.7455L13.7936 29.5209C13.858 29.392 13.9225 29.263 13.9225 29.1986L13.987 28.6185C13.987 28.4251 13.858 28.2318 13.7291 28.0384C13.6002 27.845 13.3424 27.9095 13.149 27.9739L11.6021 28.6185C11.4087 28.6829 11.2798 28.8763 11.2153 29.0697L11.0864 29.7142L10.184 29.9721C9.92622 30.0365 9.73285 30.2943 9.73285 30.5522V30.81C9.6684 31.1323 9.99068 31.3901 10.313 31.3901Z" fill="#BC955C"/>
<path d="M40.3495 31.3901H39.3182C39.2537 31.519 39.1893 31.6479 39.1893 31.7768C39.1893 31.8413 39.1893 31.9702 39.1893 32.0347C39.1893 32.228 39.2537 32.4859 39.2537 32.6792H42.7988C43.3145 32.3569 43.5723 30.9389 43.5723 29.8432L42.0253 29.392C41.7675 29.3275 41.5742 29.0697 41.5742 28.8119V28.2317C41.5742 28.0384 41.7031 27.845 41.832 27.7161L43.5723 26.4914V25.4601L42.9922 25.1379C42.7988 25.0089 42.6699 24.8156 42.6699 24.5578V23.2042C42.6699 22.9464 42.7988 22.753 43.0566 22.6241L43.6367 22.4307V21.3994H42.0253L41.2519 22.6885V24.4288L41.7675 26.1047C41.832 26.2981 41.832 26.4914 41.6386 26.6848C41.5097 26.8782 41.3163 26.9426 41.123 26.9426H40.6718C40.3495 26.9426 40.0917 26.7493 40.0272 26.427C39.9628 26.1692 39.8338 25.3312 39.7049 25.0089C39.576 24.7511 39.1248 24.171 38.867 23.7843C38.6736 23.5265 38.6736 23.2042 38.867 23.0108L40.994 20.5615C41.0585 20.1747 41.123 19.3368 40.994 18.6922C40.8651 17.9832 40.3495 17.1453 40.2206 16.8875C40.1561 16.7586 40.0917 16.6297 40.1561 16.5007L40.2206 16.3074H40.0917L37.5779 17.9188C37.449 17.9832 37.3845 18.0477 37.2556 18.0477H36.5466L36.611 18.9501L37.449 19.2724C37.7068 19.4013 37.8357 19.5946 37.8357 19.8525V20.497C37.8357 20.8193 37.5779 21.1416 37.1911 21.1416H35.0641L34.484 21.7217C34.2906 21.9795 33.9039 21.9795 33.6461 21.7861C33.6461 21.7861 32.6792 21.0127 32.6148 20.9482L32.2925 20.2392H31.0034V21.6572V22.4307C31.0034 22.4307 33.2593 23.2042 33.4527 23.2686C33.5816 23.3331 33.7105 24.0421 33.6461 24.171C33.5816 24.3644 33.6461 24.4288 33.3882 24.5578C33.3882 24.5578 32.7437 25.0734 32.5503 25.1379L31.9057 24.4933H31.0034V26.6203L31.8413 27.136L34.484 25.3312C34.7418 25.1379 35.1285 25.2023 35.3219 25.4601L35.7087 25.9758C35.902 26.2336 35.902 26.6203 35.6442 26.8137L34.1617 28.1673V29.3275L35.7087 29.9721C35.9665 30.101 36.0954 30.2943 36.0954 30.5522V30.81C36.0954 31.1323 35.8376 31.4546 35.4508 31.4546H33.6461C33.3238 31.8413 33.4527 32.3569 33.5816 32.7437H37.7712C37.9002 32.6148 37.9646 32.3569 38.0291 32.0347C38.0291 31.9702 38.0291 31.8413 38.0291 31.7768C38.0291 31.3901 37.9646 31.0034 37.9002 30.7455L36.9333 29.5209C36.8689 29.392 36.8044 29.263 36.8044 29.1986L36.7399 28.554C36.7399 28.3607 36.8689 28.1673 36.9978 27.9739C37.1911 27.845 37.3845 27.845 37.5779 27.9095L39.1248 28.554C39.3182 28.6185 39.4471 28.8119 39.5116 29.0052L39.6405 29.6498L40.5429 29.9076C40.8007 29.9721 40.994 30.2299 40.994 30.4877V30.7455C40.994 31.1323 40.7362 31.3901 40.3495 31.3901Z" fill="#BC955C"/>
<path d="M138.258 25.9113C138.258 23.5265 139.999 21.3994 142.577 21.3994C143.995 21.3994 144.897 21.7862 145.8 22.5596L145.155 23.2686C144.511 22.6885 143.737 22.2373 142.512 22.2373C140.643 22.2373 139.225 23.8487 139.225 25.7824V25.8469C139.225 27.9095 140.514 29.4564 142.641 29.4564C143.673 29.4564 144.511 29.0697 145.155 28.6185V26.427H142.512V25.5891H146.058V29.0052C145.284 29.7142 144.059 30.2944 142.577 30.2944C139.999 30.3588 138.258 28.3607 138.258 25.9113Z" fill="#9F2241"/>
<path d="M157.144 25.9113C157.144 23.9132 155.726 22.3018 153.728 22.3018C151.794 22.3018 150.376 23.9132 150.376 25.8469V25.9113C150.376 27.845 151.794 29.4564 153.792 29.4564C155.726 29.4564 157.144 27.845 157.144 25.9113ZM149.345 25.9113C149.345 23.5265 151.149 21.3994 153.728 21.3994C156.37 21.3994 158.111 23.462 158.111 25.8469V25.9113C158.111 28.2962 156.306 30.3588 153.728 30.3588C151.085 30.3588 149.345 28.2318 149.345 25.9113Z" fill="#9F2241"/>
<path d="M165.33 26.2336H162.623V29.2631H165.523C166.812 29.2631 167.65 28.6829 167.65 27.7161C167.586 26.8137 166.812 26.2336 165.33 26.2336ZM167.135 23.8487C167.135 23.0108 166.426 22.4307 165.265 22.4307H162.623V25.3957H165.201C166.297 25.3957 167.135 24.88 167.135 23.8487ZM161.591 21.5283H165.265C166.297 21.5283 167.006 21.7861 167.521 22.3018C167.844 22.6885 168.101 23.1397 168.101 23.6554V23.7198C168.101 24.88 167.392 25.3957 166.748 25.718C167.779 26.0402 168.617 26.6203 168.617 27.7806V27.845C168.617 29.3275 167.392 30.1654 165.459 30.1654H161.656L161.591 21.5283Z" fill="#9F2241"/>
<path d="M173 21.5283H172.033V30.1654H173V21.5283Z" fill="#9F2241"/>
<path d="M176.996 21.5283H183.249V22.4307H177.963V25.3957H182.668V26.2336H177.963V29.3275H183.313V30.1654H176.996V21.5283Z" fill="#9F2241"/>
<path d="M190.145 25.9758C191.435 25.9758 192.337 25.3312 192.337 24.171V24.1066C192.337 23.0108 191.499 22.4307 190.145 22.4307H187.503V25.9758H190.145ZM186.471 21.5283H190.21C191.306 21.5283 192.079 21.8506 192.659 22.3662C193.046 22.753 193.304 23.3975 193.304 24.0421V24.1066C193.304 25.5246 192.272 26.3625 190.983 26.6203L193.626 30.1654H192.401L189.888 26.8137H187.503V30.1654H186.536L186.471 21.5283Z" fill="#9F2241"/>
<path d="M196.849 21.5283H197.751L203.166 28.4896V21.5283H204.132V30.1654H203.359L197.816 23.0753V30.1654H196.849V21.5283Z" fill="#9F2241"/>
<path d="M215.412 25.9116C215.412 23.9134 213.994 22.302 211.996 22.302C209.998 22.302 208.644 23.9134 208.644 25.8471V25.9116C208.644 27.8453 210.062 29.4567 212.061 29.4567C213.994 29.4567 215.412 27.8453 215.412 25.9116ZM207.613 25.9116C207.613 23.5267 209.418 21.3997 211.996 21.3997C214.639 21.3997 216.379 23.4623 216.379 25.8471V25.9116C216.379 28.2965 214.574 30.3591 211.996 30.3591C209.353 30.3591 207.613 28.232 207.613 25.9116Z" fill="#9F2241"/>
<path d="M225.403 22.4309V29.2633H227.466C229.657 29.2633 231.075 27.7808 231.075 25.9116V25.8471C231.075 23.9779 229.721 22.4309 227.466 22.4309H225.403ZM224.436 21.5286H227.466C230.173 21.5286 232.042 23.3978 232.042 25.7827V25.8471C232.042 28.232 230.173 30.1657 227.466 30.1657H224.436V21.5286Z" fill="#9F2241"/>
<path d="M235.071 21.5283H241.324V22.4307H236.038V25.3957H240.743V26.2336H236.038V29.3275H241.388V30.1654H235.071V21.5283Z" fill="#9F2241"/>
<path d="M249.123 21.5283H250.09V29.3275H254.924V30.1654H249.123V21.5283Z" fill="#9F2241"/>
<path d="M263.368 27.0071L261.434 22.6241L259.5 27.0071H263.368ZM260.918 21.5283H261.821L265.752 30.2299H264.721L263.69 27.9739H258.985L257.953 30.2299H256.922L260.918 21.5283Z" fill="#9F2241"/>
<path d="M138.129 40.6718C138.129 38.1581 139.999 36.1599 142.641 36.1599C144.253 36.1599 145.22 36.74 146.057 37.5135L144.833 38.8671C144.188 38.2225 143.479 37.9002 142.641 37.9002C141.223 37.9002 140.128 39.1249 140.128 40.6074V40.6718C140.128 42.1543 141.159 43.379 142.641 43.379C143.673 43.379 144.253 42.9923 144.897 42.3477L146.122 43.5724C145.22 44.5392 144.253 45.1193 142.577 45.1193C139.999 45.1193 138.129 43.1212 138.129 40.6718Z" fill="#9F2241"/>
<path d="M149.474 36.3533H147.604V44.9904H149.474V36.3533Z" fill="#9F2241"/>
<path d="M151.73 41.3164V36.4177H153.599V41.2519C153.599 42.67 154.308 43.379 155.468 43.379C156.628 43.379 157.337 42.67 157.337 41.3164V36.4177H159.207V41.2519C159.207 43.8946 157.724 45.1193 155.404 45.1193C153.148 45.1193 151.73 43.8302 151.73 41.3164Z" fill="#9F2241"/>
<path d="M164.814 43.2501C166.361 43.2501 167.393 42.2188 167.393 40.6718C167.393 39.1249 166.361 38.0936 164.814 38.0936H163.332V43.3145L164.814 43.2501ZM161.398 36.3533H164.75C167.457 36.3533 169.326 38.2225 169.326 40.6074V40.6718C169.326 43.0567 167.457 44.9904 164.75 44.9904H161.398V36.3533Z" fill="#9F2241"/>
<path d="M175.514 41.3809L174.354 38.6092L173.194 41.3809H175.514ZM173.58 36.2888H175.321L178.995 44.9904H176.996L176.223 43.0567H172.549L171.775 44.9904H169.842L173.58 36.2888Z" fill="#9F2241"/>
<path d="M183.764 43.2501C185.311 43.2501 186.343 42.2188 186.343 40.6718C186.343 39.1249 185.311 38.0936 183.764 38.0936H182.282V43.3145L183.764 43.2501ZM180.348 36.3533H183.7C186.407 36.3533 188.276 38.2225 188.276 40.6074V40.6718C188.276 43.0567 186.407 44.9904 183.7 44.9904H180.348V36.3533Z" fill="#9F2241"/>
<path d="M197.236 43.2501C198.783 43.2501 199.814 42.2188 199.814 40.6718C199.814 39.1249 198.783 38.0936 197.236 38.0936H195.753V43.3145L197.236 43.2501ZM193.82 36.3533H197.171C199.878 36.3533 201.748 38.2225 201.748 40.6074V40.6718C201.748 43.0567 199.878 44.9904 197.171 44.9904H193.82V36.3533Z" fill="#9F2241"/>
<path d="M203.617 36.3533H210.127V38.0291H205.486V39.7694H209.547V41.4453H205.486V43.3145H210.191V44.9904H203.617V36.3533Z" fill="#9F2241"/>
<path d="M215.67 36.3533H217.733L219.989 39.9628L222.245 36.3533H224.307V44.9904H222.438V39.3182L219.989 42.9922H219.924L217.539 39.3827V44.9904H215.67V36.3533Z" fill="#9F2241"/>
<path d="M230.173 33.5171L231.784 34.2261L230.173 35.7086H228.755L230.173 33.5171ZM226.563 36.3532H233.073V38.029H228.432V39.7693H232.493V41.4452H228.432V43.25H233.138V44.9258H226.563V36.3532Z" fill="#9F2241"/>
<path d="M237.392 40.6074L234.491 36.3533H236.683L238.487 39.1249L240.357 36.3533H242.484L239.583 40.5429L242.613 44.9904H240.421L238.423 42.0254L236.489 44.9904H234.362L237.392 40.6074Z" fill="#9F2241"/>
<path d="M245.9 36.3533H244.031V44.9904H245.9V36.3533Z" fill="#9F2241"/>
<path d="M247.834 40.6718C247.834 38.1581 249.703 36.1599 252.346 36.1599C253.957 36.1599 254.924 36.74 255.762 37.5135L254.537 38.8671C253.892 38.2225 253.183 37.9002 252.346 37.9002C250.927 37.9002 249.832 39.1249 249.832 40.6074V40.6718C249.832 42.1543 250.863 43.379 252.346 43.379C253.377 43.379 253.957 42.9923 254.601 42.3477L255.826 43.5724C254.924 44.5392 253.957 45.1193 252.281 45.1193C249.703 45.1193 247.834 43.1212 247.834 40.6718Z" fill="#9F2241"/>
<path d="M263.819 40.6718C263.819 39.1249 262.723 37.9647 261.176 37.9647C259.629 37.9647 258.598 39.1893 258.598 40.6718V40.7363C258.598 42.2188 259.694 43.4435 261.24 43.4435C262.787 43.379 263.819 42.1543 263.819 40.6718ZM256.664 40.6718C256.664 38.1581 258.598 36.1599 261.24 36.1599C263.883 36.1599 265.817 38.1581 265.817 40.6074V40.6718C265.817 43.1212 263.883 45.1193 261.24 45.1193C258.598 45.1193 256.664 43.1212 256.664 40.6718Z" fill="#9F2241"/>
<path d="M322.569 46.587L319.959 49.1071L317.888 46.947H311.858L309.698 49.1071L307.088 46.587L310.328 43.4368H319.328L322.569 46.587Z" fill="#28AFC6" stroke="white" stroke-width="0.479436" stroke-linecap="round" stroke-linejoin="round"/>
<path d="M317.888 46.9471L320.048 49.1072L317.348 51.8074H312.488L309.788 49.1072L311.948 46.9471H317.888ZM319.958 15.9852L317.888 18.0554H311.858L309.698 15.8952L312.398 13.1951H317.258L319.958 15.9852Z" fill="#E56A17" stroke="white" stroke-width="0.479436" stroke-linecap="round" stroke-linejoin="round"/>
<path d="M303.938 21.6556L307.088 18.5054L310.328 21.6556L307.088 24.8958L303.938 21.6556Z" fill="#B57C30" stroke="white" stroke-width="0.479436" stroke-linecap="round" stroke-linejoin="round"/>
<path d="M300.697 24.8958L303.938 21.7456L307.088 24.8958L303.848 28.046L300.697 24.8958Z" fill="#B23408" stroke="white" stroke-width="0.479436" stroke-linecap="round" stroke-linejoin="round"/>
<path d="M303.938 28.0462V37.0467L300.697 40.1969L298.087 37.6768L300.247 35.5166V29.4863L298.087 27.3261L300.697 24.896L303.938 28.0462Z" fill="#28AFC6" stroke="white" stroke-width="0.479436" stroke-linecap="round" stroke-linejoin="round"/>
<path d="M300.247 29.4864V35.5167L298.087 37.6769L295.387 34.9767V30.1164L298.087 27.4163L300.247 29.4864Z" fill="#E56A17" stroke="white" stroke-width="0.479436" stroke-linecap="round" stroke-linejoin="round"/>
<path d="M309.698 37.6768L307.088 40.1969L303.848 37.0467V28.0462L307.088 24.896L309.698 27.4161L307.538 29.5763V35.6066L309.698 37.6768Z" fill="#282899" stroke="white" stroke-width="0.479436" stroke-linecap="round" stroke-linejoin="round"/>
<path d="M312.398 30.1162H317.258V34.9765H312.398V30.1162Z" fill="#28AFC6" stroke="white" stroke-width="0.479436" stroke-linecap="round" stroke-linejoin="round"/>
<path d="M319.958 37.6766L317.888 39.7468H311.858L309.698 37.5866L312.398 34.8865H317.258L319.958 37.6766Z" fill="#E5D9A8" stroke="white" stroke-width="0.479436" stroke-linecap="round" stroke-linejoin="round"/>
<path d="M325.809 43.3471L322.569 46.4973L319.328 43.3471L320.409 42.2671L322.569 40.1069L325.809 43.3471ZM310.328 43.3471L307.088 46.5873L303.848 43.4371L307.088 40.1969L310.328 43.3471Z" fill="#B57C30" stroke="white" stroke-width="0.479436" stroke-linecap="round" stroke-linejoin="round"/>
<path d="M300.697 40.1968L303.938 37.0466L307.088 40.1968L303.848 43.347L300.697 40.1968Z" fill="#B23408" stroke="white" stroke-width="0.479436" stroke-linecap="round" stroke-linejoin="round"/>
<path d="M322.569 18.5053L319.328 21.6554H310.328L307.088 18.5053L309.698 15.9851L311.858 18.1452H317.888L320.049 15.9851L322.569 18.5053Z" fill="#28AFC6" stroke="white" stroke-width="0.479436" stroke-linecap="round" stroke-linejoin="round"/>
<path d="M322.569 24.8958L319.959 27.4159L317.888 25.2558H311.858L309.698 27.4159L307.088 24.8958L310.328 21.7456H319.328L322.569 24.8958Z" fill="#2C2785" stroke="white" stroke-width="0.479436" stroke-linecap="round" stroke-linejoin="round"/>
<path d="M319.328 21.6556L322.569 18.5054L325.809 21.6556L322.569 24.8958L319.328 21.6556Z" fill="#B57C30" stroke="white" stroke-width="0.479436" stroke-linecap="round" stroke-linejoin="round"/>
<path d="M322.569 24.8958L325.809 21.7456L329.049 24.8958L325.809 28.046L322.569 24.8958Z" fill="#B23408" stroke="white" stroke-width="0.479436" stroke-linecap="round" stroke-linejoin="round"/>
<path d="M329.409 35.5166L331.569 37.6768L328.959 40.1969L325.719 37.0467V28.0462L328.959 24.896L331.569 27.4161L329.409 29.5763V35.5166Z" fill="#28AFC6" stroke="white" stroke-width="0.479436" stroke-linecap="round" stroke-linejoin="round"/>
<path d="M322.569 40.1968L325.809 37.0466L329.049 40.1968L325.809 43.347L322.569 40.1968Z" fill="#B23408" stroke="white" stroke-width="0.479436" stroke-linecap="round" stroke-linejoin="round"/>
<path d="M334.269 30.1161V34.9764L331.569 37.6765L329.409 35.5164V29.4861L331.569 27.3259L334.269 30.1161Z" fill="#E56A17" stroke="white" stroke-width="0.479436" stroke-linecap="round" stroke-linejoin="round"/>
<path d="M312.398 30.1161V34.9764L309.698 37.6765L307.538 35.5164V29.4861L309.698 27.3259L312.398 30.1161Z" fill="#CECC97" stroke="white" stroke-width="0.479436" stroke-linecap="round" stroke-linejoin="round"/>
<path d="M319.958 27.4157L317.258 30.1159H312.398L309.698 27.4157L311.858 25.2556H317.888L319.958 27.4157Z" fill="#E5D9A8" stroke="white" stroke-width="0.479436" stroke-linecap="round" stroke-linejoin="round"/>
<path d="M322.569 40.1967L320.409 42.3568L319.328 43.4369H310.328L307.088 40.1967L309.698 37.6765L311.858 39.8366H317.888L320.049 37.6765L322.569 40.1967Z" fill="#2C2785" stroke="white" stroke-width="0.479436" stroke-linecap="round" stroke-linejoin="round"/>
<path d="M325.809 28.0461V37.0466L322.569 40.1968L319.958 37.6767L322.119 35.5165V29.4862L319.958 27.3261L322.569 24.8059L325.809 28.0461Z" fill="#282899" stroke="white" stroke-width="0.479436" stroke-linecap="round" stroke-linejoin="round"/>
<path d="M322.119 29.4864V35.5167L319.958 37.6769L317.258 34.9767V30.1164L319.958 27.4163L322.119 29.4864Z" fill="#CECC97" stroke="white" stroke-width="0.479436" stroke-linecap="round" stroke-linejoin="round"/>
<path d="M345.054 31.2646H347.004V28.6053H348.485C350.474 28.6053 352.069 27.5416 352.069 25.4902V25.4648C352.069 23.654 350.79 22.4003 348.675 22.4003H345.054V31.2646ZM347.004 26.8705V24.1605H348.511C349.486 24.1605 350.094 24.6291 350.094 25.5028V25.5282C350.094 26.288 349.524 26.8705 348.549 26.8705H347.004ZM353.512 31.2646H359.882V29.4918H355.463V22.4003H353.512V31.2646ZM360.593 31.2646H362.581L363.392 29.2765H367.14L367.95 31.2646H369.989L366.19 22.337H364.392L360.593 31.2646ZM364.088 27.5543L365.266 24.6797L366.443 27.5543H364.088ZM371.091 31.2646H378.474V29.5551H373.599L378.474 23.8819V22.4003H371.243V24.1099H375.967L371.091 29.783V31.2646ZM379.563 31.2646H381.551L382.362 29.2765H386.11L386.921 31.2646H388.959L385.16 22.337H383.362L379.563 31.2646ZM383.058 27.5543L384.236 24.6797L385.414 27.5543H383.058ZM394.124 31.2646H396.074V28.6053H397.556C399.544 28.6053 401.14 27.5416 401.14 25.4902V25.4648C401.14 23.654 399.861 22.4003 397.746 22.4003H394.124V31.2646ZM396.074 26.8705V24.1605H397.581C398.556 24.1605 399.164 24.6291 399.164 25.5028V25.5282C399.164 26.288 398.594 26.8705 397.619 26.8705H396.074ZM406.281 31.4039C408.661 31.4039 410.168 30.087 410.168 27.4023V22.4003H408.218V27.4783C408.218 28.8839 407.496 29.6058 406.306 29.6058C405.115 29.6058 404.394 28.8586 404.394 27.415V22.4003H402.444V27.4656C402.444 30.0743 403.9 31.4039 406.281 31.4039ZM405.521 21.7038H406.99L408.712 20.4375L407.053 19.7157L405.521 21.7038ZM412.155 31.2646H416.371C418.372 31.2646 419.689 30.4542 419.689 28.8333V28.808C419.689 27.6176 419.056 27.0224 418.03 26.6299C418.663 26.2753 419.195 25.7181 419.195 24.7177V24.6924C419.195 24.0845 418.993 23.5907 418.588 23.1854C418.081 22.6789 417.283 22.4003 416.27 22.4003H412.155V31.2646ZM414.054 25.984V24.1099H415.979C416.802 24.1099 417.258 24.4391 417.258 25.0216V25.0469C417.258 25.7054 416.713 25.984 415.852 25.984H414.054ZM414.054 29.5551V27.6049H416.308C417.309 27.6049 417.752 27.9722 417.752 28.5674V28.5927C417.752 29.2512 417.233 29.5551 416.371 29.5551H414.054ZM421.293 31.2646H427.663V29.4918H423.244V22.4003H421.293V31.2646ZM429.222 31.2646H431.173V22.4003H429.222V31.2646ZM437.541 31.4166C439.251 31.4166 440.264 30.8088 441.176 29.8337L439.935 28.58C439.238 29.2132 438.618 29.6184 437.605 29.6184C436.085 29.6184 435.034 28.3521 435.034 26.8325V26.8072C435.034 25.2875 436.111 24.0465 437.605 24.0465C438.491 24.0465 439.188 24.4264 439.872 25.0469L441.113 23.616C440.289 22.8055 439.289 22.2483 437.617 22.2483C434.895 22.2483 432.995 24.3125 432.995 26.8325V26.8578C432.995 29.4031 434.933 31.4166 437.541 31.4166ZM441.977 31.2646H443.965L444.776 29.2765H448.524L449.335 31.2646H451.373L447.574 22.337H445.776L441.977 31.2646ZM445.472 27.5543L446.65 24.6797L447.828 27.5543H445.472Z" fill="#919290"/>
<path d="M344.762 43.2874H346.177V41.3574H347.253C348.695 41.3574 349.853 40.5854 349.853 39.0965V39.0782C349.853 37.7639 348.925 36.8541 347.39 36.8541H344.762V43.2874ZM346.177 40.0983V38.1316H347.271C347.979 38.1316 348.42 38.4716 348.42 39.1057V39.1241C348.42 39.6755 348.006 40.0983 347.298 40.0983H346.177ZM350.901 43.2874H355.524V42.0007H352.316V36.8541H350.901V43.2874ZM356.039 43.2874H357.482L358.071 41.8445H360.791L361.379 43.2874H362.859L360.102 36.8081H358.797L356.039 43.2874ZM358.576 40.5946L359.431 38.5084L360.285 40.5946H358.576ZM364.524 43.2874H365.939V38.1591H367.897V36.8541H362.566V38.1591H364.524V43.2874ZM367.608 43.2874H369.051L369.639 41.8445H372.36L372.948 43.2874H374.427L371.67 36.8081H370.365L367.608 43.2874ZM370.145 40.5946L370.999 38.5084L371.854 40.5946H370.145ZM375.42 43.2874H376.836V40.7968H379.905V39.5101H376.836V38.1408H380.319V36.8541H375.42V43.2874ZM384.576 43.3976C386.561 43.3976 388.004 41.8996 388.004 40.0707V40.0523C388.004 38.2235 386.58 36.7438 384.595 36.7438C382.61 36.7438 381.167 38.2418 381.167 40.0707V40.0891C381.167 41.918 382.591 43.3976 384.576 43.3976ZM384.595 42.0926C383.455 42.0926 382.646 41.1736 382.646 40.0707V40.0523C382.646 38.9495 383.437 38.0488 384.576 38.0488C385.716 38.0488 386.525 38.9679 386.525 40.0707V40.0891C386.525 41.192 385.734 42.0926 384.595 42.0926ZM389.26 43.2874H390.675V41.2287H391.787L393.166 43.2874H394.82L393.248 40.9898C394.066 40.6865 394.627 40.034 394.627 38.9955V38.9771C394.627 38.3705 394.434 37.865 394.076 37.5066C393.653 37.0839 393.019 36.8541 392.201 36.8541H389.26V43.2874ZM390.675 39.9788V38.1316H392.081C392.771 38.1316 393.193 38.444 393.193 39.0506V39.069C393.193 39.6112 392.798 39.9788 392.109 39.9788H390.675ZM395.901 43.2874H397.289V39.1149L399.081 41.8353H399.118L400.928 39.0874V43.2874H402.335V36.8541H400.809L399.118 39.5744L397.427 36.8541H395.901V43.2874ZM403.329 43.2874H404.771L405.36 41.8445H408.08L408.668 43.2874H410.148L407.391 36.8081H406.086L403.329 43.2874ZM405.865 40.5946L406.72 38.5084L407.575 40.5946H405.865ZM413.896 43.2874H416.405C418.427 43.2874 419.824 41.8812 419.824 40.0707V40.0523C419.824 38.2418 418.427 36.8541 416.405 36.8541H413.896V43.2874ZM415.311 42.0099V38.1316H416.405C417.563 38.1316 418.344 38.9311 418.344 40.0707V40.0891C418.344 41.2287 417.563 42.0099 416.405 42.0099H415.311ZM421.085 43.2874H425.983V42.0283H422.491V40.6773H425.524V39.4182H422.491V38.1132H425.938V36.8541H421.085V43.2874ZM429.997 43.2874H431.412V41.3574H432.488C433.931 41.3574 435.089 40.5854 435.089 39.0965V39.0782C435.089 37.7639 434.16 36.8541 432.626 36.8541H429.997V43.2874ZM431.412 40.0983V38.1316H432.506C433.214 38.1316 433.655 38.4716 433.655 39.1057V39.1241C433.655 39.6755 433.241 40.0983 432.534 40.0983H431.412ZM434.938 43.2874H436.381L436.969 41.8445H439.69L440.278 43.2874H441.758L439.001 36.8081H437.696L434.938 43.2874ZM437.475 40.5946L438.33 38.5084L439.184 40.5946H437.475ZM442.751 43.2874H444.166V41.2287H445.278L446.656 43.2874H448.311L446.739 40.9898C447.557 40.6865 448.118 40.034 448.118 38.9955V38.9771C448.118 38.3705 447.925 37.865 447.566 37.5066C447.144 37.0839 446.509 36.8541 445.691 36.8541H442.751V43.2874ZM444.166 39.9788V38.1316H445.572C446.261 38.1316 446.684 38.444 446.684 39.0506V39.069C446.684 39.6112 446.289 39.9788 445.6 39.9788H444.166ZM450.89 43.2874H452.305V38.1591H454.263V36.8541H448.933V38.1591H450.89V43.2874ZM455.416 43.2874H456.831V36.8541H455.416V43.2874ZM461.453 43.3976C462.694 43.3976 463.429 42.9565 464.091 42.2488L463.19 41.339C462.685 41.7985 462.234 42.0926 461.499 42.0926C460.396 42.0926 459.634 41.1736 459.634 40.0707V40.0523C459.634 38.9495 460.415 38.0488 461.499 38.0488C462.143 38.0488 462.648 38.3246 463.144 38.7749L464.045 37.7364C463.448 37.1482 462.722 36.7438 461.508 36.7438C459.532 36.7438 458.154 38.2418 458.154 40.0707V40.0891C458.154 41.9364 459.56 43.3976 461.453 43.3976ZM465.288 43.2874H466.704V36.8541H465.288V43.2874ZM468.311 43.2874H469.727V41.3574H470.802C472.245 41.3574 473.403 40.5854 473.403 39.0965V39.0782C473.403 37.7639 472.474 36.8541 470.94 36.8541H468.311V43.2874ZM469.727 40.0983V38.1316H470.82C471.528 38.1316 471.969 38.4716 471.969 39.1057V39.1241C471.969 39.6755 471.555 40.0983 470.848 40.0983H469.727ZM473.253 43.2874H474.695L475.284 41.8445H478.004L478.592 43.2874H480.072L477.315 36.8081H476.01L473.253 43.2874ZM475.789 40.5946L476.644 38.5084L477.498 40.5946H475.789ZM483.666 43.3976C484.907 43.3976 485.642 42.9565 486.304 42.2488L485.403 41.339C484.898 41.7985 484.447 42.0926 483.712 42.0926C482.609 42.0926 481.847 41.1736 481.847 40.0707V40.0523C481.847 38.9495 482.628 38.0488 483.712 38.0488C484.356 38.0488 484.861 38.3246 485.357 38.7749L486.258 37.7364C485.661 37.1482 484.935 36.7438 483.721 36.7438C481.745 36.7438 480.367 38.2418 480.367 40.0707V40.0891C480.367 41.9364 481.773 43.3976 483.666 43.3976ZM487.501 43.2874H488.917V36.8541H487.501V43.2874ZM493.649 43.3976C495.634 43.3976 497.077 41.8996 497.077 40.0707V40.0523C497.077 38.2235 495.653 36.7438 493.667 36.7438C491.682 36.7438 490.239 38.2418 490.239 40.0707V40.0891C490.239 41.918 491.664 43.3976 493.649 43.3976ZM493.667 42.0926C492.528 42.0926 491.719 41.1736 491.719 40.0707V40.0523C491.719 38.9495 492.509 38.0488 493.649 38.0488C494.789 38.0488 495.597 38.9679 495.597 40.0707V40.0891C495.597 41.192 494.807 42.0926 493.667 42.0926ZM493.088 36.2567H494.154L495.404 35.3377L494.2 34.8138L493.088 36.2567ZM498.333 43.2874H499.729V39.1976L502.845 43.2874H504.049V36.8541H502.652V40.8151L499.638 36.8541H498.333V43.2874Z" fill="#A5A6A4"/>
</svg>
