<?xml version="1.0" encoding="UTF-8"?>
<svg width="40px" height="32px" viewBox="0 0 40 32" version="1.1" xmlns="http://www.w3.org/2000/svg" xmlns:xlink="http://www.w3.org/1999/xlink">
    <title>gorjeo copy</title>
    <g id="Page-1" stroke="none" stroke-width="1" fill="none" fill-rule="evenodd">
        <g id="Home-5-MARZO" transform="translate(-542.000000, -1951.000000)" fill="#FFFFFF" fill-rule="nonzero">
            <g id="Group-25" transform="translate(0.000000, 1785.000000)">
                <g id="gorjeo-copy" transform="translate(542.000000, 166.000000)">
                    <path d="M40,3.78830769 C38.5125,4.43076923 36.9275,4.85661538 35.275,5.06338462 C36.975,4.064 38.2725,2.49353846 38.8825,0.600615385 C37.2975,1.53107692 35.5475,2.18830769 33.6825,2.55507692 C32.1775,0.977230769 30.0325,0 27.6925,0 C23.1525,0 19.4975,3.62830769 19.4975,8.07630769 C19.4975,8.71630769 19.5525,9.33169231 19.6875,9.91753846 C12.87,9.59015385 6.8375,6.37292308 2.785,1.472 C2.0775,2.68061538 1.6625,4.064 1.6625,5.55323077 C1.6625,8.34953846 3.125,10.8283077 5.305,12.2633846 C3.9875,12.2387692 2.695,11.8621538 1.6,11.2689231 C1.6,11.2935385 1.6,11.3255385 1.6,11.3575385 C1.6,15.2812308 4.4425,18.5403077 8.17,19.2910769 C7.5025,19.4707692 6.775,19.5569231 6.02,19.5569231 C5.495,19.5569231 4.965,19.5273846 4.4675,19.4190769 C5.53,22.6166154 8.545,24.9673846 12.13,25.0436923 C9.34,27.1926154 5.7975,28.4873846 1.9625,28.4873846 C1.29,28.4873846 0.645,28.4578462 -4.4408921e-15,28.3766154 C3.6325,30.6830769 7.9375,32 12.58,32 C27.67,32 35.92,19.6923077 35.92,9.024 C35.92,8.66707692 35.9075,8.32246154 35.89,7.98030769 C37.5175,6.84307692 38.885,5.42276923 40,3.78830769 Z" id="Path"></path>
                </g>
            </g>
        </g>
    </g>
</svg>